<?xml version="1.0" encoding="UTF-8" standalone="no"?>
<!-- Created with Inkscape (http://www.inkscape.org/) -->

<svg
   width="720"
   height="200"
   viewBox="0 0 190.49999 52.916666"
   version="1.1"
   id="svg1"
   xml:space="preserve"
   inkscape:version="1.3 (0e150ed6c4, 2023-07-21)"
   sodipodi:docname="logos.svg"
   inkscape:export-filename="icon-128.png"
   inkscape:export-xdpi="96"
   inkscape:export-ydpi="96"
   xmlns:inkscape="http://www.inkscape.org/namespaces/inkscape"
   xmlns:sodipodi="http://sodipodi.sourceforge.net/DTD/sodipodi-0.dtd"
   xmlns="http://www.w3.org/2000/svg"
   xmlns:svg="http://www.w3.org/2000/svg"><sodipodi:namedview
     id="namedview1"
     pagecolor="#ffffff"
     bordercolor="#000000"
     borderopacity="0.25"
     inkscape:showpageshadow="2"
     inkscape:pageopacity="0.0"
     inkscape:pagecheckerboard="0"
     inkscape:deskcolor="#d1d1d1"
     inkscape:document-units="px"
     inkscape:zoom="0.97890839"
     inkscape:cx="251.8111"
     inkscape:cy="253.85419"
     inkscape:window-width="1920"
     inkscape:window-height="991"
     inkscape:window-x="-9"
     inkscape:window-y="-9"
     inkscape:window-maximized="1"
     inkscape:current-layer="layer1" /><defs
     id="defs1" /><g
     inkscape:label="Capa 1"
     inkscape:groupmode="layer"
     id="layer1"><g
       id="g3"
       transform="translate(-11.35193,-67.030447)"
       inkscape:export-filename="icon-128.png"
       inkscape:export-xdpi="96"
       inkscape:export-ydpi="96"><rect
         style="opacity:0.2;fill:none;fill-rule:evenodd;stroke:none;stroke-width:1.30627;stroke-linejoin:round;stroke-miterlimit:10"
         id="rect3"
         width="33.866665"
         height="33.866665"
         x="20.175745"
         y="73.231148" /><path
         style="fill:#000000;stroke-width:0.189806"
         d="m 31.922044,94.695256 c -0.01985,-0.04835 -0.04747,-0.29127 -0.06139,-0.539862 -0.02887,-0.515537 0.07154,-1.154763 0.260048,-1.65559 l 0.117515,-0.312212 -0.171291,-0.346918 C 31.83971,91.38049 31.748268,90.913683 31.74811,90.213157 c -1.41e-4,-0.622211 0.07165,-1.019795 0.276678,-1.532286 l 0.125966,-0.314859 -0.176328,-0.344207 c -0.609268,-1.189337 -0.33536,-2.697455 0.66812,-3.678599 0.15626,-0.152782 0.279101,-0.293753 0.272976,-0.313275 -0.0061,-0.01952 -0.0338,-0.274688 -0.0615,-0.567053 -0.125511,-1.324664 0.233327,-2.626075 0.824902,-2.99169 0.710379,-0.439036 1.410507,0.11699 1.732455,1.375878 0.05587,0.218485 0.101588,0.472722 0.101588,0.564971 0,0.200058 0.03154,0.204346 0.342797,0.04664 0.788145,-0.399389 1.741655,-0.398711 2.532014,0.0016 0.269109,0.136365 0.339245,0.123541 0.339245,-0.06208 0,-0.230002 0.161233,-0.844552 0.305695,-1.165161 0.19058,-0.42297 0.403972,-0.682393 0.665423,-0.808956 0.719413,-0.348265 1.354961,0.229512 1.620819,1.473486 0.08081,0.378144 0.09901,1.59616 0.02932,1.962599 -0.03741,0.196701 -0.03188,0.207148 0.266042,0.502199 0.372622,0.369037 0.626393,0.77764 0.811236,1.306189 0.123655,0.353592 0.140291,0.472893 0.140005,1.003917 -3.79e-4,0.65949 -0.09764,1.053497 -0.358937,1.453719 -0.11508,0.176265 -0.122774,0.215218 -0.06943,0.351541 0.278994,0.712966 0.321322,0.908237 0.343478,1.584561 0.02655,0.810524 -0.05147,1.258611 -0.310922,1.785796 l -0.174489,0.354539 0.120023,0.298318 c 0.189316,0.470557 0.294122,1.130406 0.262746,1.654243 -0.03905,0.651975 -0.01887,0.627749 -0.52302,0.627749 -0.386065,0 -0.423603,-0.0084 -0.392729,-0.08789 0.211968,-0.545702 0.131213,-1.375241 -0.206022,-2.116296 -0.0929,-0.204142 -0.168908,-0.426328 -0.168908,-0.493746 0,-0.06739 0.07923,-0.219261 0.176055,-0.337427 0.263184,-0.321181 0.380973,-0.710352 0.411284,-1.358864 0.03566,-0.763003 -0.111231,-1.351464 -0.443581,-1.777015 -0.138381,-0.17718 -0.115562,-0.364234 0.07487,-0.613749 0.255565,-0.334863 0.37741,-0.607166 0.443109,-0.990293 0.16014,-0.93386 -0.400037,-2.035049 -1.24672,-2.450783 -0.25656,-0.125974 -0.356451,-0.145471 -0.786997,-0.153598 -0.282871,-0.0057 -0.522703,-0.03382 -0.562479,-0.0669 -0.03814,-0.03169 -0.13649,-0.176526 -0.218558,-0.32194 -0.188472,-0.333956 -0.533871,-0.639471 -0.95712,-0.846594 -0.307708,-0.150585 -0.365377,-0.161448 -0.857209,-0.161448 -0.491833,0 -0.549499,0.01086 -0.85721,0.161448 -0.423249,0.207123 -0.768647,0.512638 -0.95712,0.846594 -0.08207,0.145414 -0.180418,0.290289 -0.218556,0.32194 -0.03978,0.033 -0.279607,0.0615 -0.562482,0.0669 -0.433245,0.0082 -0.529734,0.02728 -0.794455,0.157029 -0.850509,0.416983 -1.400847,1.505054 -1.238904,2.449427 0.06536,0.38115 0.187505,0.65378 0.442753,0.988218 0.190429,0.249515 0.213247,0.436569 0.07487,0.613749 -0.329696,0.422153 -0.477513,1.01086 -0.446188,1.777015 0.02647,0.647418 0.141653,1.026632 0.412062,1.356634 0.217287,0.265173 0.222327,0.391205 0.03081,0.770599 -0.345205,0.683839 -0.442701,1.618156 -0.227401,2.179214 0.03043,0.07931 -0.0075,0.08777 -0.393187,0.08777 -0.359314,0 -0.432576,-0.01389 -0.462945,-0.08789 z m 2.321369,-11.098447 c 0.495438,-0.03504 0.542243,-0.105057 0.49734,-0.743833 -0.05499,-0.782426 -0.325338,-1.607995 -0.555467,-1.696307 -0.102249,-0.03921 -0.245892,0.174402 -0.384192,0.57139 -0.08918,0.256001 -0.117716,0.469838 -0.135308,1.014013 -0.02546,0.787612 1.9e-4,0.969635 0.129264,0.916029 0.04718,-0.0196 0.248943,-0.04721 0.448363,-0.06126 z m 6.311254,0.0083 c 0.05771,-0.150397 0.02862,-1.251937 -0.04184,-1.58439 -0.09306,-0.439028 -0.299535,-0.847149 -0.428596,-0.847149 -0.233531,0 -0.532652,0.847533 -0.586194,1.660932 -0.02692,0.409035 -0.01851,0.500835 0.05642,0.615195 0.07739,0.118117 0.122383,0.135025 0.371059,0.139419 0.155643,0.0024 0.339485,0.02312 0.408536,0.04525 0.182408,0.0584 0.187233,0.05775 0.220616,-0.02924 z m -4.338623,6.186795 c -0.524179,-0.150969 -0.983135,-0.505026 -1.179108,-0.909626 -0.132593,-0.273741 -0.161971,-0.852964 -0.05865,-1.156208 0.252994,-0.742501 1.037544,-1.263749 1.984625,-1.318564 0.733598,-0.04247 1.389202,0.183338 1.850389,0.637314 0.353478,0.347939 0.485204,0.639332 0.508466,1.124762 0.01722,0.359309 0.0054,0.419393 -0.141528,0.717793 -0.187455,0.380766 -0.49834,0.654409 -0.942754,0.8298 -0.247527,0.09768 -0.396675,0.115846 -1.042161,0.126906 -0.503579,0.0087 -0.828208,-0.0087 -0.979283,-0.05219 z m 1.954626,-0.658543 c 0.513518,-0.284122 0.716261,-0.686934 0.582028,-1.15638 -0.276225,-0.966042 -1.759224,-1.355915 -2.718646,-0.714721 -0.288702,0.192943 -0.544242,0.551795 -0.588059,0.825798 -0.08037,0.50264 0.286292,0.971138 0.92071,1.176424 0.06905,0.0223 0.441932,0.03586 0.828624,0.03006 0.677797,-0.01021 0.712862,-0.01593 0.975343,-0.161187 z m -1.213886,-0.430845 c -0.06101,-0.03553 -0.08789,-0.113935 -0.08789,-0.25636 0,-0.154358 -0.0311,-0.234012 -0.125547,-0.32154 -0.222569,-0.206266 -0.116329,-0.467911 0.162924,-0.401244 0.161512,0.03855 0.179775,0.03847 0.422725,-8.16e-4 0.15298,-0.02499 0.193377,-0.01233 0.240311,0.07539 0.06611,0.123532 0.0097,0.260468 -0.154622,0.375588 -0.08699,0.06093 -0.100353,0.106093 -0.07359,0.248739 0.05072,0.270368 -0.15011,0.416991 -0.384312,0.280578 z M 34.109301,87.586322 C 33.723032,87.45271 33.65775,86.986123 33.98021,86.663668 c 0.474322,-0.474322 1.131553,0.0978 0.778178,0.677411 -0.07889,0.129389 -0.373134,0.325722 -0.46163,0.308014 -0.0078,-0.0016 -0.09215,-0.02981 -0.187457,-0.06273 z m 5.635659,-0.01005 c -0.205992,-0.088 -0.364651,-0.346101 -0.364892,-0.593598 -3.8e-4,-0.42908 0.508483,-0.642869 0.848743,-0.356565 0.500869,0.421459 0.103792,1.201214 -0.483851,0.950163 z"
         id="path2" /><path
         style="fill:#000000;stroke-width:0.216184"
         d="m 27.518203,103.17706 c -0.06372,-0.0707 -0.131116,-0.17205 -0.149796,-0.22521 -0.01868,-0.0531 0.157599,-1.05692 0.391734,-2.23074 0.234129,-1.173827 0.425747,-2.163587 0.42582,-2.199457 9.3e-5,-0.0455 -0.316184,-0.0735 -1.043742,-0.0926 -1.200929,-0.0314 -1.593019,-0.11749 -2.359442,-0.51818 -0.345684,-0.1807 -0.591272,-0.37207 -1.004228,-0.78257 -0.469746,-0.46695 -0.583984,-0.61982 -0.812139,-1.086767 -0.509843,-1.04347 -0.471578,-0.36818 -0.471578,-8.322397 0,-7.883714 -0.03025,-7.293418 0.42202,-8.236591 0.542611,-1.131611 1.4954,-1.953996 2.695304,-2.326406 l 0.428989,-0.133124 h 11.067932 11.067934 l 0.428988,0.133124 c 1.199904,0.37241 2.152692,1.194795 2.695305,2.326406 0.452265,0.943173 0.422018,0.352877 0.422018,8.236591 0,7.954217 0.03827,7.278927 -0.471577,8.322397 -0.228156,0.466947 -0.342392,0.619817 -0.812138,1.086767 -0.606428,0.60281 -1.123798,0.91831 -1.890806,1.15301 l -0.428991,0.13135 -5.491066,0.0301 -5.491067,0.0299 -4.574536,2.416637 c -3.180607,1.68024 -4.628556,2.41664 -4.751814,2.41664 -0.111387,0 -0.220336,-0.0478 -0.293124,-0.12868 z m 5.61557,-3.683877 3.775109,-1.99308 5.576867,-0.0286 5.576863,-0.0286 0.385608,-0.15001 c 1.175047,-0.45715 1.989212,-1.373029 2.243523,-2.523799 0.08181,-0.370224 0.08993,-1.150716 0.07545,-7.250132 l -0.01617,-6.835232 -0.16446,-0.427171 c -0.40168,-1.043343 -1.146384,-1.785587 -2.133447,-2.126378 L 48.062683,77.995279 H 37.109148 26.155614 l -0.390431,0.134902 c -0.987063,0.340791 -1.731764,1.083017 -2.133439,2.126346 l -0.164459,0.427171 -0.01618,6.835232 c -0.01457,6.099416 -0.0064,6.879891 0.07545,7.250132 0.254664,1.152352 1.078371,2.077661 2.243526,2.520241 0.365886,0.13899 0.452889,0.14752 1.701176,0.16601 0.723562,0.0107 1.374137,0.0323 1.44572,0.0478 0.204456,0.0446 0.356035,0.23314 0.356035,0.44271 0,0.10362 -0.167303,1.02268 -0.37179,2.04237 -0.204485,1.019667 -0.371791,1.875057 -0.371791,1.900827 0,0.0257 0.18661,-0.0544 0.41469,-0.17799 0.228079,-0.1237 2.113488,-1.1217 4.189797,-2.217897 z"
         id="path3" /></g><g
       id="g5"
       transform="matrix(0.37500002,0,0,0.37500002,43.422222,-16.395868)"
       inkscape:export-filename="icon-48.png"
       inkscape:export-xdpi="96"
       inkscape:export-ydpi="96"><rect
         style="opacity:0.2;fill:none;fill-rule:evenodd;stroke:none;stroke-width:1.30627;stroke-linejoin:round;stroke-miterlimit:10"
         id="rect4"
         width="33.866665"
         height="33.866665"
         x="20.175745"
         y="73.231148" /><path
         style="fill:#000000;stroke-width:0.189806"
         d="m 31.922044,94.695256 c -0.01985,-0.04835 -0.04747,-0.29127 -0.06139,-0.539862 -0.02887,-0.515537 0.07154,-1.154763 0.260048,-1.65559 l 0.117515,-0.312212 -0.171291,-0.346918 C 31.83971,91.38049 31.748268,90.913683 31.74811,90.213157 c -1.41e-4,-0.622211 0.07165,-1.019795 0.276678,-1.532286 l 0.125966,-0.314859 -0.176328,-0.344207 c -0.609268,-1.189337 -0.33536,-2.697455 0.66812,-3.678599 0.15626,-0.152782 0.279101,-0.293753 0.272976,-0.313275 -0.0061,-0.01952 -0.0338,-0.274688 -0.0615,-0.567053 -0.125511,-1.324664 0.233327,-2.626075 0.824902,-2.99169 0.710379,-0.439036 1.410507,0.11699 1.732455,1.375878 0.05587,0.218485 0.101588,0.472722 0.101588,0.564971 0,0.200058 0.03154,0.204346 0.342797,0.04664 0.788145,-0.399389 1.741655,-0.398711 2.532014,0.0016 0.269109,0.136365 0.339245,0.123541 0.339245,-0.06208 0,-0.230002 0.161233,-0.844552 0.305695,-1.165161 0.19058,-0.42297 0.403972,-0.682393 0.665423,-0.808956 0.719413,-0.348265 1.354961,0.229512 1.620819,1.473486 0.08081,0.378144 0.09901,1.59616 0.02932,1.962599 -0.03741,0.196701 -0.03188,0.207148 0.266042,0.502199 0.372622,0.369037 0.626393,0.77764 0.811236,1.306189 0.123655,0.353592 0.140291,0.472893 0.140005,1.003917 -3.79e-4,0.65949 -0.09764,1.053497 -0.358937,1.453719 -0.11508,0.176265 -0.122774,0.215218 -0.06943,0.351541 0.278994,0.712966 0.321322,0.908237 0.343478,1.584561 0.02655,0.810524 -0.05147,1.258611 -0.310922,1.785796 l -0.174489,0.354539 0.120023,0.298318 c 0.189316,0.470557 0.294122,1.130406 0.262746,1.654243 -0.03905,0.651975 -0.01887,0.627749 -0.52302,0.627749 -0.386065,0 -0.423603,-0.0084 -0.392729,-0.08789 0.211968,-0.545702 0.131213,-1.375241 -0.206022,-2.116296 -0.0929,-0.204142 -0.168908,-0.426328 -0.168908,-0.493746 0,-0.06739 0.07923,-0.219261 0.176055,-0.337427 0.263184,-0.321181 0.380973,-0.710352 0.411284,-1.358864 0.03566,-0.763003 -0.111231,-1.351464 -0.443581,-1.777015 -0.138381,-0.17718 -0.115562,-0.364234 0.07487,-0.613749 0.255565,-0.334863 0.37741,-0.607166 0.443109,-0.990293 0.16014,-0.93386 -0.400037,-2.035049 -1.24672,-2.450783 -0.25656,-0.125974 -0.356451,-0.145471 -0.786997,-0.153598 -0.282871,-0.0057 -0.522703,-0.03382 -0.562479,-0.0669 -0.03814,-0.03169 -0.13649,-0.176526 -0.218558,-0.32194 -0.188472,-0.333956 -0.533871,-0.639471 -0.95712,-0.846594 -0.307708,-0.150585 -0.365377,-0.161448 -0.857209,-0.161448 -0.491833,0 -0.549499,0.01086 -0.85721,0.161448 -0.423249,0.207123 -0.768647,0.512638 -0.95712,0.846594 -0.08207,0.145414 -0.180418,0.290289 -0.218556,0.32194 -0.03978,0.033 -0.279607,0.0615 -0.562482,0.0669 -0.433245,0.0082 -0.529734,0.02728 -0.794455,0.157029 -0.850509,0.416983 -1.400847,1.505054 -1.238904,2.449427 0.06536,0.38115 0.187505,0.65378 0.442753,0.988218 0.190429,0.249515 0.213247,0.436569 0.07487,0.613749 -0.329696,0.422153 -0.477513,1.01086 -0.446188,1.777015 0.02647,0.647418 0.141653,1.026632 0.412062,1.356634 0.217287,0.265173 0.222327,0.391205 0.03081,0.770599 -0.345205,0.683839 -0.442701,1.618156 -0.227401,2.179214 0.03043,0.07931 -0.0075,0.08777 -0.393187,0.08777 -0.359314,0 -0.432576,-0.01389 -0.462945,-0.08789 z m 2.321369,-11.098447 c 0.495438,-0.03504 0.542243,-0.105057 0.49734,-0.743833 -0.05499,-0.782426 -0.325338,-1.607995 -0.555467,-1.696307 -0.102249,-0.03921 -0.245892,0.174402 -0.384192,0.57139 -0.08918,0.256001 -0.117716,0.469838 -0.135308,1.014013 -0.02546,0.787612 1.9e-4,0.969635 0.129264,0.916029 0.04718,-0.0196 0.248943,-0.04721 0.448363,-0.06126 z m 6.311254,0.0083 c 0.05771,-0.150397 0.02862,-1.251937 -0.04184,-1.58439 -0.09306,-0.439028 -0.299535,-0.847149 -0.428596,-0.847149 -0.233531,0 -0.532652,0.847533 -0.586194,1.660932 -0.02692,0.409035 -0.01851,0.500835 0.05642,0.615195 0.07739,0.118117 0.122383,0.135025 0.371059,0.139419 0.155643,0.0024 0.339485,0.02312 0.408536,0.04525 0.182408,0.0584 0.187233,0.05775 0.220616,-0.02924 z m -4.338623,6.186795 c -0.524179,-0.150969 -0.983135,-0.505026 -1.179108,-0.909626 -0.132593,-0.273741 -0.161971,-0.852964 -0.05865,-1.156208 0.252994,-0.742501 1.037544,-1.263749 1.984625,-1.318564 0.733598,-0.04247 1.389202,0.183338 1.850389,0.637314 0.353478,0.347939 0.485204,0.639332 0.508466,1.124762 0.01722,0.359309 0.0054,0.419393 -0.141528,0.717793 -0.187455,0.380766 -0.49834,0.654409 -0.942754,0.8298 -0.247527,0.09768 -0.396675,0.115846 -1.042161,0.126906 -0.503579,0.0087 -0.828208,-0.0087 -0.979283,-0.05219 z m 1.954626,-0.658543 c 0.513518,-0.284122 0.716261,-0.686934 0.582028,-1.15638 -0.276225,-0.966042 -1.759224,-1.355915 -2.718646,-0.714721 -0.288702,0.192943 -0.544242,0.551795 -0.588059,0.825798 -0.08037,0.50264 0.286292,0.971138 0.92071,1.176424 0.06905,0.0223 0.441932,0.03586 0.828624,0.03006 0.677797,-0.01021 0.712862,-0.01593 0.975343,-0.161187 z m -1.213886,-0.430845 c -0.06101,-0.03553 -0.08789,-0.113935 -0.08789,-0.25636 0,-0.154358 -0.0311,-0.234012 -0.125547,-0.32154 -0.222569,-0.206266 -0.116329,-0.467911 0.162924,-0.401244 0.161512,0.03855 0.179775,0.03847 0.422725,-8.16e-4 0.15298,-0.02499 0.193377,-0.01233 0.240311,0.07539 0.06611,0.123532 0.0097,0.260468 -0.154622,0.375588 -0.08699,0.06093 -0.100353,0.106093 -0.07359,0.248739 0.05072,0.270368 -0.15011,0.416991 -0.384312,0.280578 z M 34.109301,87.586322 C 33.723032,87.45271 33.65775,86.986123 33.98021,86.663668 c 0.474322,-0.474322 1.131553,0.0978 0.778178,0.677411 -0.07889,0.129389 -0.373134,0.325722 -0.46163,0.308014 -0.0078,-0.0016 -0.09215,-0.02981 -0.187457,-0.06273 z m 5.635659,-0.01005 c -0.205992,-0.088 -0.364651,-0.346101 -0.364892,-0.593598 -3.8e-4,-0.42908 0.508483,-0.642869 0.848743,-0.356565 0.500869,0.421459 0.103792,1.201214 -0.483851,0.950163 z"
         id="path4" /><path
         style="fill:#000000;stroke-width:0.216184"
         d="m 27.518203,103.17706 c -0.06372,-0.0707 -0.131116,-0.17205 -0.149796,-0.22521 -0.01868,-0.0531 0.157599,-1.05692 0.391734,-2.23074 0.234129,-1.173827 0.425747,-2.163587 0.42582,-2.199457 9.3e-5,-0.0455 -0.316184,-0.0735 -1.043742,-0.0926 -1.200929,-0.0314 -1.593019,-0.11749 -2.359442,-0.51818 -0.345684,-0.1807 -0.591272,-0.37207 -1.004228,-0.78257 -0.469746,-0.46695 -0.583984,-0.61982 -0.812139,-1.086767 -0.509843,-1.04347 -0.471578,-0.36818 -0.471578,-8.322397 0,-7.883714 -0.03025,-7.293418 0.42202,-8.236591 0.542611,-1.131611 1.4954,-1.953996 2.695304,-2.326406 l 0.428989,-0.133124 h 11.067932 11.067934 l 0.428988,0.133124 c 1.199904,0.37241 2.152692,1.194795 2.695305,2.326406 0.452265,0.943173 0.422018,0.352877 0.422018,8.236591 0,7.954217 0.03827,7.278927 -0.471577,8.322397 -0.228156,0.466947 -0.342392,0.619817 -0.812138,1.086767 -0.606428,0.60281 -1.123798,0.91831 -1.890806,1.15301 l -0.428991,0.13135 -5.491066,0.0301 -5.491067,0.0299 -4.574536,2.416637 c -3.180607,1.68024 -4.628556,2.41664 -4.751814,2.41664 -0.111387,0 -0.220336,-0.0478 -0.293124,-0.12868 z m 5.61557,-3.683877 3.775109,-1.99308 5.576867,-0.0286 5.576863,-0.0286 0.385608,-0.15001 c 1.175047,-0.45715 1.989212,-1.373029 2.243523,-2.523799 0.08181,-0.370224 0.08993,-1.150716 0.07545,-7.250132 l -0.01617,-6.835232 -0.16446,-0.427171 c -0.40168,-1.043343 -1.146384,-1.785587 -2.133447,-2.126378 L 48.062683,77.995279 H 37.109148 26.155614 l -0.390431,0.134902 c -0.987063,0.340791 -1.731764,1.083017 -2.133439,2.126346 l -0.164459,0.427171 -0.01618,6.835232 c -0.01457,6.099416 -0.0064,6.879891 0.07545,7.250132 0.254664,1.152352 1.078371,2.077661 2.243526,2.520241 0.365886,0.13899 0.452889,0.14752 1.701176,0.16601 0.723562,0.0107 1.374137,0.0323 1.44572,0.0478 0.204456,0.0446 0.356035,0.23314 0.356035,0.44271 0,0.10362 -0.167303,1.02268 -0.37179,2.04237 -0.204485,1.019667 -0.371791,1.875057 -0.371791,1.900827 0,0.0257 0.18661,-0.0544 0.41469,-0.17799 0.228079,-0.1237 2.113488,-1.1217 4.189797,-2.217897 z"
         id="path5" /></g><g
       id="g7"
       transform="matrix(0.25000001,0,0,0.25000001,65.671576,-6.5661698)"
       inkscape:export-filename="icon-32.png"
       inkscape:export-xdpi="96"
       inkscape:export-ydpi="96"><rect
         style="opacity:0.2;fill:none;fill-rule:evenodd;stroke:none;stroke-width:1.30627;stroke-linejoin:round;stroke-miterlimit:10"
         id="rect5"
         width="33.866665"
         height="33.866665"
         x="20.175745"
         y="73.231148" /><path
         style="fill:#000000;stroke-width:0.189806"
         d="m 31.922044,94.695256 c -0.01985,-0.04835 -0.04747,-0.29127 -0.06139,-0.539862 -0.02887,-0.515537 0.07154,-1.154763 0.260048,-1.65559 l 0.117515,-0.312212 -0.171291,-0.346918 C 31.83971,91.38049 31.748268,90.913683 31.74811,90.213157 c -1.41e-4,-0.622211 0.07165,-1.019795 0.276678,-1.532286 l 0.125966,-0.314859 -0.176328,-0.344207 c -0.609268,-1.189337 -0.33536,-2.697455 0.66812,-3.678599 0.15626,-0.152782 0.279101,-0.293753 0.272976,-0.313275 -0.0061,-0.01952 -0.0338,-0.274688 -0.0615,-0.567053 -0.125511,-1.324664 0.233327,-2.626075 0.824902,-2.99169 0.710379,-0.439036 1.410507,0.11699 1.732455,1.375878 0.05587,0.218485 0.101588,0.472722 0.101588,0.564971 0,0.200058 0.03154,0.204346 0.342797,0.04664 0.788145,-0.399389 1.741655,-0.398711 2.532014,0.0016 0.269109,0.136365 0.339245,0.123541 0.339245,-0.06208 0,-0.230002 0.161233,-0.844552 0.305695,-1.165161 0.19058,-0.42297 0.403972,-0.682393 0.665423,-0.808956 0.719413,-0.348265 1.354961,0.229512 1.620819,1.473486 0.08081,0.378144 0.09901,1.59616 0.02932,1.962599 -0.03741,0.196701 -0.03188,0.207148 0.266042,0.502199 0.372622,0.369037 0.626393,0.77764 0.811236,1.306189 0.123655,0.353592 0.140291,0.472893 0.140005,1.003917 -3.79e-4,0.65949 -0.09764,1.053497 -0.358937,1.453719 -0.11508,0.176265 -0.122774,0.215218 -0.06943,0.351541 0.278994,0.712966 0.321322,0.908237 0.343478,1.584561 0.02655,0.810524 -0.05147,1.258611 -0.310922,1.785796 l -0.174489,0.354539 0.120023,0.298318 c 0.189316,0.470557 0.294122,1.130406 0.262746,1.654243 -0.03905,0.651975 -0.01887,0.627749 -0.52302,0.627749 -0.386065,0 -0.423603,-0.0084 -0.392729,-0.08789 0.211968,-0.545702 0.131213,-1.375241 -0.206022,-2.116296 -0.0929,-0.204142 -0.168908,-0.426328 -0.168908,-0.493746 0,-0.06739 0.07923,-0.219261 0.176055,-0.337427 0.263184,-0.321181 0.380973,-0.710352 0.411284,-1.358864 0.03566,-0.763003 -0.111231,-1.351464 -0.443581,-1.777015 -0.138381,-0.17718 -0.115562,-0.364234 0.07487,-0.613749 0.255565,-0.334863 0.37741,-0.607166 0.443109,-0.990293 0.16014,-0.93386 -0.400037,-2.035049 -1.24672,-2.450783 -0.25656,-0.125974 -0.356451,-0.145471 -0.786997,-0.153598 -0.282871,-0.0057 -0.522703,-0.03382 -0.562479,-0.0669 -0.03814,-0.03169 -0.13649,-0.176526 -0.218558,-0.32194 -0.188472,-0.333956 -0.533871,-0.639471 -0.95712,-0.846594 -0.307708,-0.150585 -0.365377,-0.161448 -0.857209,-0.161448 -0.491833,0 -0.549499,0.01086 -0.85721,0.161448 -0.423249,0.207123 -0.768647,0.512638 -0.95712,0.846594 -0.08207,0.145414 -0.180418,0.290289 -0.218556,0.32194 -0.03978,0.033 -0.279607,0.0615 -0.562482,0.0669 -0.433245,0.0082 -0.529734,0.02728 -0.794455,0.157029 -0.850509,0.416983 -1.400847,1.505054 -1.238904,2.449427 0.06536,0.38115 0.187505,0.65378 0.442753,0.988218 0.190429,0.249515 0.213247,0.436569 0.07487,0.613749 -0.329696,0.422153 -0.477513,1.01086 -0.446188,1.777015 0.02647,0.647418 0.141653,1.026632 0.412062,1.356634 0.217287,0.265173 0.222327,0.391205 0.03081,0.770599 -0.345205,0.683839 -0.442701,1.618156 -0.227401,2.179214 0.03043,0.07931 -0.0075,0.08777 -0.393187,0.08777 -0.359314,0 -0.432576,-0.01389 -0.462945,-0.08789 z m 2.321369,-11.098447 c 0.495438,-0.03504 0.542243,-0.105057 0.49734,-0.743833 -0.05499,-0.782426 -0.325338,-1.607995 -0.555467,-1.696307 -0.102249,-0.03921 -0.245892,0.174402 -0.384192,0.57139 -0.08918,0.256001 -0.117716,0.469838 -0.135308,1.014013 -0.02546,0.787612 1.9e-4,0.969635 0.129264,0.916029 0.04718,-0.0196 0.248943,-0.04721 0.448363,-0.06126 z m 6.311254,0.0083 c 0.05771,-0.150397 0.02862,-1.251937 -0.04184,-1.58439 -0.09306,-0.439028 -0.299535,-0.847149 -0.428596,-0.847149 -0.233531,0 -0.532652,0.847533 -0.586194,1.660932 -0.02692,0.409035 -0.01851,0.500835 0.05642,0.615195 0.07739,0.118117 0.122383,0.135025 0.371059,0.139419 0.155643,0.0024 0.339485,0.02312 0.408536,0.04525 0.182408,0.0584 0.187233,0.05775 0.220616,-0.02924 z m -4.338623,6.186795 c -0.524179,-0.150969 -0.983135,-0.505026 -1.179108,-0.909626 -0.132593,-0.273741 -0.161971,-0.852964 -0.05865,-1.156208 0.252994,-0.742501 1.037544,-1.263749 1.984625,-1.318564 0.733598,-0.04247 1.389202,0.183338 1.850389,0.637314 0.353478,0.347939 0.485204,0.639332 0.508466,1.124762 0.01722,0.359309 0.0054,0.419393 -0.141528,0.717793 -0.187455,0.380766 -0.49834,0.654409 -0.942754,0.8298 -0.247527,0.09768 -0.396675,0.115846 -1.042161,0.126906 -0.503579,0.0087 -0.828208,-0.0087 -0.979283,-0.05219 z m 1.954626,-0.658543 c 0.513518,-0.284122 0.716261,-0.686934 0.582028,-1.15638 -0.276225,-0.966042 -1.759224,-1.355915 -2.718646,-0.714721 -0.288702,0.192943 -0.544242,0.551795 -0.588059,0.825798 -0.08037,0.50264 0.286292,0.971138 0.92071,1.176424 0.06905,0.0223 0.441932,0.03586 0.828624,0.03006 0.677797,-0.01021 0.712862,-0.01593 0.975343,-0.161187 z m -1.213886,-0.430845 c -0.06101,-0.03553 -0.08789,-0.113935 -0.08789,-0.25636 0,-0.154358 -0.0311,-0.234012 -0.125547,-0.32154 -0.222569,-0.206266 -0.116329,-0.467911 0.162924,-0.401244 0.161512,0.03855 0.179775,0.03847 0.422725,-8.16e-4 0.15298,-0.02499 0.193377,-0.01233 0.240311,0.07539 0.06611,0.123532 0.0097,0.260468 -0.154622,0.375588 -0.08699,0.06093 -0.100353,0.106093 -0.07359,0.248739 0.05072,0.270368 -0.15011,0.416991 -0.384312,0.280578 z M 34.109301,87.586322 C 33.723032,87.45271 33.65775,86.986123 33.98021,86.663668 c 0.474322,-0.474322 1.131553,0.0978 0.778178,0.677411 -0.07889,0.129389 -0.373134,0.325722 -0.46163,0.308014 -0.0078,-0.0016 -0.09215,-0.02981 -0.187457,-0.06273 z m 5.635659,-0.01005 c -0.205992,-0.088 -0.364651,-0.346101 -0.364892,-0.593598 -3.8e-4,-0.42908 0.508483,-0.642869 0.848743,-0.356565 0.500869,0.421459 0.103792,1.201214 -0.483851,0.950163 z"
         id="path6" /><path
         style="fill:#000000;stroke-width:0.216184"
         d="m 27.518203,103.17706 c -0.06372,-0.0707 -0.131116,-0.17205 -0.149796,-0.22521 -0.01868,-0.0531 0.157599,-1.05692 0.391734,-2.23074 0.234129,-1.173827 0.425747,-2.163587 0.42582,-2.199457 9.3e-5,-0.0455 -0.316184,-0.0735 -1.043742,-0.0926 -1.200929,-0.0314 -1.593019,-0.11749 -2.359442,-0.51818 -0.345684,-0.1807 -0.591272,-0.37207 -1.004228,-0.78257 -0.469746,-0.46695 -0.583984,-0.61982 -0.812139,-1.086767 -0.509843,-1.04347 -0.471578,-0.36818 -0.471578,-8.322397 0,-7.883714 -0.03025,-7.293418 0.42202,-8.236591 0.542611,-1.131611 1.4954,-1.953996 2.695304,-2.326406 l 0.428989,-0.133124 h 11.067932 11.067934 l 0.428988,0.133124 c 1.199904,0.37241 2.152692,1.194795 2.695305,2.326406 0.452265,0.943173 0.422018,0.352877 0.422018,8.236591 0,7.954217 0.03827,7.278927 -0.471577,8.322397 -0.228156,0.466947 -0.342392,0.619817 -0.812138,1.086767 -0.606428,0.60281 -1.123798,0.91831 -1.890806,1.15301 l -0.428991,0.13135 -5.491066,0.0301 -5.491067,0.0299 -4.574536,2.416637 c -3.180607,1.68024 -4.628556,2.41664 -4.751814,2.41664 -0.111387,0 -0.220336,-0.0478 -0.293124,-0.12868 z m 5.61557,-3.683877 3.775109,-1.99308 5.576867,-0.0286 5.576863,-0.0286 0.385608,-0.15001 c 1.175047,-0.45715 1.989212,-1.373029 2.243523,-2.523799 0.08181,-0.370224 0.08993,-1.150716 0.07545,-7.250132 l -0.01617,-6.835232 -0.16446,-0.427171 c -0.40168,-1.043343 -1.146384,-1.785587 -2.133447,-2.126378 L 48.062683,77.995279 H 37.109148 26.155614 l -0.390431,0.134902 c -0.987063,0.340791 -1.731764,1.083017 -2.133439,2.126346 l -0.164459,0.427171 -0.01618,6.835232 c -0.01457,6.099416 -0.0064,6.879891 0.07545,7.250132 0.254664,1.152352 1.078371,2.077661 2.243526,2.520241 0.365886,0.13899 0.452889,0.14752 1.701176,0.16601 0.723562,0.0107 1.374137,0.0323 1.44572,0.0478 0.204456,0.0446 0.356035,0.23314 0.356035,0.44271 0,0.10362 -0.167303,1.02268 -0.37179,2.04237 -0.204485,1.019667 -0.371791,1.875057 -0.371791,1.900827 0,0.0257 0.18661,-0.0544 0.41469,-0.17799 0.228079,-0.1237 2.113488,-1.1217 4.189797,-2.217897 z"
         id="path7" /></g><g
       id="g9"
       transform="matrix(0.12500001,0,0,0.12500001,82.653741,4.2094285)"
       inkscape:export-filename="icon-16.png"
       inkscape:export-xdpi="96"
       inkscape:export-ydpi="96"><rect
         style="opacity:0.2;fill:none;fill-rule:evenodd;stroke:none;stroke-width:1.30627;stroke-linejoin:round;stroke-miterlimit:10"
         id="rect7"
         width="33.866665"
         height="33.866665"
         x="20.175745"
         y="73.231148" /><path
         style="fill:#000000;stroke-width:0.189806"
         d="m 31.922044,94.695256 c -0.01985,-0.04835 -0.04747,-0.29127 -0.06139,-0.539862 -0.02887,-0.515537 0.07154,-1.154763 0.260048,-1.65559 l 0.117515,-0.312212 -0.171291,-0.346918 C 31.83971,91.38049 31.748268,90.913683 31.74811,90.213157 c -1.41e-4,-0.622211 0.07165,-1.019795 0.276678,-1.532286 l 0.125966,-0.314859 -0.176328,-0.344207 c -0.609268,-1.189337 -0.33536,-2.697455 0.66812,-3.678599 0.15626,-0.152782 0.279101,-0.293753 0.272976,-0.313275 -0.0061,-0.01952 -0.0338,-0.274688 -0.0615,-0.567053 -0.125511,-1.324664 0.233327,-2.626075 0.824902,-2.99169 0.710379,-0.439036 1.410507,0.11699 1.732455,1.375878 0.05587,0.218485 0.101588,0.472722 0.101588,0.564971 0,0.200058 0.03154,0.204346 0.342797,0.04664 0.788145,-0.399389 1.741655,-0.398711 2.532014,0.0016 0.269109,0.136365 0.339245,0.123541 0.339245,-0.06208 0,-0.230002 0.161233,-0.844552 0.305695,-1.165161 0.19058,-0.42297 0.403972,-0.682393 0.665423,-0.808956 0.719413,-0.348265 1.354961,0.229512 1.620819,1.473486 0.08081,0.378144 0.09901,1.59616 0.02932,1.962599 -0.03741,0.196701 -0.03188,0.207148 0.266042,0.502199 0.372622,0.369037 0.626393,0.77764 0.811236,1.306189 0.123655,0.353592 0.140291,0.472893 0.140005,1.003917 -3.79e-4,0.65949 -0.09764,1.053497 -0.358937,1.453719 -0.11508,0.176265 -0.122774,0.215218 -0.06943,0.351541 0.278994,0.712966 0.321322,0.908237 0.343478,1.584561 0.02655,0.810524 -0.05147,1.258611 -0.310922,1.785796 l -0.174489,0.354539 0.120023,0.298318 c 0.189316,0.470557 0.294122,1.130406 0.262746,1.654243 -0.03905,0.651975 -0.01887,0.627749 -0.52302,0.627749 -0.386065,0 -0.423603,-0.0084 -0.392729,-0.08789 0.211968,-0.545702 0.131213,-1.375241 -0.206022,-2.116296 -0.0929,-0.204142 -0.168908,-0.426328 -0.168908,-0.493746 0,-0.06739 0.07923,-0.219261 0.176055,-0.337427 0.263184,-0.321181 0.380973,-0.710352 0.411284,-1.358864 0.03566,-0.763003 -0.111231,-1.351464 -0.443581,-1.777015 -0.138381,-0.17718 -0.115562,-0.364234 0.07487,-0.613749 0.255565,-0.334863 0.37741,-0.607166 0.443109,-0.990293 0.16014,-0.93386 -0.400037,-2.035049 -1.24672,-2.450783 -0.25656,-0.125974 -0.356451,-0.145471 -0.786997,-0.153598 -0.282871,-0.0057 -0.522703,-0.03382 -0.562479,-0.0669 -0.03814,-0.03169 -0.13649,-0.176526 -0.218558,-0.32194 -0.188472,-0.333956 -0.533871,-0.639471 -0.95712,-0.846594 -0.307708,-0.150585 -0.365377,-0.161448 -0.857209,-0.161448 -0.491833,0 -0.549499,0.01086 -0.85721,0.161448 -0.423249,0.207123 -0.768647,0.512638 -0.95712,0.846594 -0.08207,0.145414 -0.180418,0.290289 -0.218556,0.32194 -0.03978,0.033 -0.279607,0.0615 -0.562482,0.0669 -0.433245,0.0082 -0.529734,0.02728 -0.794455,0.157029 -0.850509,0.416983 -1.400847,1.505054 -1.238904,2.449427 0.06536,0.38115 0.187505,0.65378 0.442753,0.988218 0.190429,0.249515 0.213247,0.436569 0.07487,0.613749 -0.329696,0.422153 -0.477513,1.01086 -0.446188,1.777015 0.02647,0.647418 0.141653,1.026632 0.412062,1.356634 0.217287,0.265173 0.222327,0.391205 0.03081,0.770599 -0.345205,0.683839 -0.442701,1.618156 -0.227401,2.179214 0.03043,0.07931 -0.0075,0.08777 -0.393187,0.08777 -0.359314,0 -0.432576,-0.01389 -0.462945,-0.08789 z m 2.321369,-11.098447 c 0.495438,-0.03504 0.542243,-0.105057 0.49734,-0.743833 -0.05499,-0.782426 -0.325338,-1.607995 -0.555467,-1.696307 -0.102249,-0.03921 -0.245892,0.174402 -0.384192,0.57139 -0.08918,0.256001 -0.117716,0.469838 -0.135308,1.014013 -0.02546,0.787612 1.9e-4,0.969635 0.129264,0.916029 0.04718,-0.0196 0.248943,-0.04721 0.448363,-0.06126 z m 6.311254,0.0083 c 0.05771,-0.150397 0.02862,-1.251937 -0.04184,-1.58439 -0.09306,-0.439028 -0.299535,-0.847149 -0.428596,-0.847149 -0.233531,0 -0.532652,0.847533 -0.586194,1.660932 -0.02692,0.409035 -0.01851,0.500835 0.05642,0.615195 0.07739,0.118117 0.122383,0.135025 0.371059,0.139419 0.155643,0.0024 0.339485,0.02312 0.408536,0.04525 0.182408,0.0584 0.187233,0.05775 0.220616,-0.02924 z m -4.338623,6.186795 c -0.524179,-0.150969 -0.983135,-0.505026 -1.179108,-0.909626 -0.132593,-0.273741 -0.161971,-0.852964 -0.05865,-1.156208 0.252994,-0.742501 1.037544,-1.263749 1.984625,-1.318564 0.733598,-0.04247 1.389202,0.183338 1.850389,0.637314 0.353478,0.347939 0.485204,0.639332 0.508466,1.124762 0.01722,0.359309 0.0054,0.419393 -0.141528,0.717793 -0.187455,0.380766 -0.49834,0.654409 -0.942754,0.8298 -0.247527,0.09768 -0.396675,0.115846 -1.042161,0.126906 -0.503579,0.0087 -0.828208,-0.0087 -0.979283,-0.05219 z m 1.954626,-0.658543 c 0.513518,-0.284122 0.716261,-0.686934 0.582028,-1.15638 -0.276225,-0.966042 -1.759224,-1.355915 -2.718646,-0.714721 -0.288702,0.192943 -0.544242,0.551795 -0.588059,0.825798 -0.08037,0.50264 0.286292,0.971138 0.92071,1.176424 0.06905,0.0223 0.441932,0.03586 0.828624,0.03006 0.677797,-0.01021 0.712862,-0.01593 0.975343,-0.161187 z m -1.213886,-0.430845 c -0.06101,-0.03553 -0.08789,-0.113935 -0.08789,-0.25636 0,-0.154358 -0.0311,-0.234012 -0.125547,-0.32154 -0.222569,-0.206266 -0.116329,-0.467911 0.162924,-0.401244 0.161512,0.03855 0.179775,0.03847 0.422725,-8.16e-4 0.15298,-0.02499 0.193377,-0.01233 0.240311,0.07539 0.06611,0.123532 0.0097,0.260468 -0.154622,0.375588 -0.08699,0.06093 -0.100353,0.106093 -0.07359,0.248739 0.05072,0.270368 -0.15011,0.416991 -0.384312,0.280578 z M 34.109301,87.586322 C 33.723032,87.45271 33.65775,86.986123 33.98021,86.663668 c 0.474322,-0.474322 1.131553,0.0978 0.778178,0.677411 -0.07889,0.129389 -0.373134,0.325722 -0.46163,0.308014 -0.0078,-0.0016 -0.09215,-0.02981 -0.187457,-0.06273 z m 5.635659,-0.01005 c -0.205992,-0.088 -0.364651,-0.346101 -0.364892,-0.593598 -3.8e-4,-0.42908 0.508483,-0.642869 0.848743,-0.356565 0.500869,0.421459 0.103792,1.201214 -0.483851,0.950163 z"
         id="path8" /><path
         style="fill:#000000;stroke-width:0.216184"
         d="m 27.518203,103.17706 c -0.06372,-0.0707 -0.131116,-0.17205 -0.149796,-0.22521 -0.01868,-0.0531 0.157599,-1.05692 0.391734,-2.23074 0.234129,-1.173827 0.425747,-2.163587 0.42582,-2.199457 9.3e-5,-0.0455 -0.316184,-0.0735 -1.043742,-0.0926 -1.200929,-0.0314 -1.593019,-0.11749 -2.359442,-0.51818 -0.345684,-0.1807 -0.591272,-0.37207 -1.004228,-0.78257 -0.469746,-0.46695 -0.583984,-0.61982 -0.812139,-1.086767 -0.509843,-1.04347 -0.471578,-0.36818 -0.471578,-8.322397 0,-7.883714 -0.03025,-7.293418 0.42202,-8.236591 0.542611,-1.131611 1.4954,-1.953996 2.695304,-2.326406 l 0.428989,-0.133124 h 11.067932 11.067934 l 0.428988,0.133124 c 1.199904,0.37241 2.152692,1.194795 2.695305,2.326406 0.452265,0.943173 0.422018,0.352877 0.422018,8.236591 0,7.954217 0.03827,7.278927 -0.471577,8.322397 -0.228156,0.466947 -0.342392,0.619817 -0.812138,1.086767 -0.606428,0.60281 -1.123798,0.91831 -1.890806,1.15301 l -0.428991,0.13135 -5.491066,0.0301 -5.491067,0.0299 -4.574536,2.416637 c -3.180607,1.68024 -4.628556,2.41664 -4.751814,2.41664 -0.111387,0 -0.220336,-0.0478 -0.293124,-0.12868 z m 5.61557,-3.683877 3.775109,-1.99308 5.576867,-0.0286 5.576863,-0.0286 0.385608,-0.15001 c 1.175047,-0.45715 1.989212,-1.373029 2.243523,-2.523799 0.08181,-0.370224 0.08993,-1.150716 0.07545,-7.250132 l -0.01617,-6.835232 -0.16446,-0.427171 c -0.40168,-1.043343 -1.146384,-1.785587 -2.133447,-2.126378 L 48.062683,77.995279 H 37.109148 26.155614 l -0.390431,0.134902 c -0.987063,0.340791 -1.731764,1.083017 -2.133439,2.126346 l -0.164459,0.427171 -0.01618,6.835232 c -0.01457,6.099416 -0.0064,6.879891 0.07545,7.250132 0.254664,1.152352 1.078371,2.077661 2.243526,2.520241 0.365886,0.13899 0.452889,0.14752 1.701176,0.16601 0.723562,0.0107 1.374137,0.0323 1.44572,0.0478 0.204456,0.0446 0.356035,0.23314 0.356035,0.44271 0,0.10362 -0.167303,1.02268 -0.37179,2.04237 -0.204485,1.019667 -0.371791,1.875057 -0.371791,1.900827 0,0.0257 0.18661,-0.0544 0.41469,-0.17799 0.228079,-0.1237 2.113488,-1.1217 4.189797,-2.217897 z"
         id="path9" /></g></g></svg>
